<?xml version="1.0" encoding="us-ascii" standalone="no"?><svg xmlns="http://www.w3.org/2000/svg" xmlns:xlink="http://www.w3.org/1999/xlink" contentStyleType="text/css" height="86px" preserveAspectRatio="none" style="width:359px;height:86px;background:#FFFFFF;" version="1.1" viewBox="0 0 359 86" width="359px" zoomAndPan="magnify"><defs/><g><!--entity User--><g id="elem_User"><ellipse cx="21.5" cy="14" fill="#F1F1F1" rx="8" ry="8" style="stroke:#181818;stroke-width:0.5;"/><path d="M21.5,22 L21.5,49 M8.5,30 L34.5,30 M21.5,49 L8.5,64 M21.5,49 L34.5,64 " fill="none" style="stroke:#181818;stroke-width:0.5;"/><text fill="#000000" font-family="sans-serif" font-size="14" lengthAdjust="spacing" textLength="31" x="6" y="78.4951">User</text></g><!--entity TMS--><g id="elem_TMS"><rect fill="#F1F1F1" height="36.2969" rx="2.5" ry="2.5" style="stroke:#181818;stroke-width:0.5;" width="209" x="144" y="25.5"/><text fill="#000000" font-family="sans-serif" font-size="14" lengthAdjust="spacing" textLength="189" x="154" y="48.4951">Task Management System</text></g><!--link User to TMS--><g id="link_User_TMS"><path d="M37.0794,53.8881 C43.699,57.7073 51.6835,61.5686 59.5,63.5 C99.7006,73.4332 140.023,69.9898 176.686,62.7059 " fill="none" id="User-to-TMS" style="stroke:#181818;stroke-width:1.0;"/><polygon fill="#181818" points="182.571,61.5367,172.9641,59.3671,177.6668,62.511,174.523,67.2138,182.571,61.5367" style="stroke:#181818;stroke-width:1.0;"/><text fill="#000000" font-family="sans-serif" font-size="13" lengthAdjust="spacing" textLength="60" x="60.5" y="59.5669">Requests</text></g><!--link TMS to User--><g id="link_TMS_User"><path d="M143.827,43.5 C102.4217,43.5 65.44,43.5 43.1026,43.5 " fill="none" id="TMS-to-User" style="stroke:#181818;stroke-width:1.0;"/><polygon fill="#181818" points="37.1026,43.5,46.1026,47.5,42.1026,43.5,46.1026,39.5,37.1026,43.5" style="stroke:#181818;stroke-width:1.0;"/><text fill="#000000" font-family="sans-serif" font-size="13" lengthAdjust="spacing" textLength="70" x="55.5" y="36.5669">Responses</text></g><!--SRC=[7Oez4a0m58Jxd697xm8ADz0G1tXZTXH8o3w5snFbzsEBvu9PBA5mSKlhJZJHj66mP2iF9iVqo7aqC24EKmZrHzjNG8UHrqsvGiNF_hLgdJc9UW40]--></g></svg>