<?xml version="1.0" encoding="us-ascii" standalone="no"?><svg xmlns="http://www.w3.org/2000/svg" xmlns:xlink="http://www.w3.org/1999/xlink" contentStyleType="text/css" height="140px" preserveAspectRatio="none" style="width:577px;height:140px;background:#FFFFFF;" version="1.1" viewBox="0 0 577 140" width="577px" zoomAndPan="magnify"><defs/><g><!--entity User--><g id="elem_User"><ellipse cx="21.5" cy="67.161" fill="#F1F1F1" rx="8" ry="8" style="stroke:#181818;stroke-width:0.5;"/><path d="M21.5,75.161 L21.5,102.161 M8.5,83.161 L34.5,83.161 M21.5,102.161 L8.5,117.161 M21.5,102.161 L34.5,117.161 " fill="none" style="stroke:#181818;stroke-width:0.5;"/><text fill="#000000" font-family="sans-serif" font-size="14" lengthAdjust="spacing" textLength="31" x="6" y="131.6561">User</text></g><!--entity TU--><g id="elem_TU"><rect fill="#F1F1F1" height="36.2969" rx="2.5" ry="2.5" style="stroke:#181818;stroke-width:0.5;" width="122" x="153.5" y="78.661"/><text fill="#000000" font-family="sans-serif" font-size="14" lengthAdjust="spacing" textLength="102" x="163.5" y="101.6561">Task Updating</text></g><!--entity TDB--><g id="elem_TDB"><path d="M435,84.161 C435,74.161 497.5,74.161 497.5,74.161 C497.5,74.161 560,74.161 560,84.161 L560,109.4579 C560,119.4579 497.5,119.4579 497.5,119.4579 C497.5,119.4579 435,119.4579 435,109.4579 L435,84.161 " fill="#F1F1F1" style="stroke:#181818;stroke-width:0.5;"/><path d="M435,84.161 C435,94.161 497.5,94.161 497.5,94.161 C497.5,94.161 560,94.161 560,84.161 " fill="none" style="stroke:#181818;stroke-width:0.5;"/><text fill="#000000" font-family="sans-serif" font-size="14" lengthAdjust="spacing" textLength="105" x="445" y="111.1561">Task Database</text></g><!--link User to TU--><g id="link_User_TU"><path d="M37.294,96.661 C62.4117,96.661 106.775,96.661 147.411,96.661 " fill="none" id="User-to-TU" style="stroke:#181818;stroke-width:1.0;"/><polygon fill="#181818" points="153.411,96.661,144.411,92.661,148.411,96.661,144.411,100.661,153.411,96.661" style="stroke:#181818;stroke-width:1.0;"/><text fill="#000000" font-family="sans-serif" font-size="13" lengthAdjust="spacing" textLength="80" x="55.25" y="89.7279">Update Task</text></g><!--link TU to TDB--><g id="link_TU_TDB"><path d="M275.558,96.661 C322.518,96.661 381.177,96.661 428.592,96.661 " fill="none" id="TU-to-TDB" style="stroke:#181818;stroke-width:1.0;"/><polygon fill="#181818" points="434.592,96.661,425.592,92.661,429.592,96.661,425.592,100.661,434.592,96.661" style="stroke:#181818;stroke-width:1.0;"/><text fill="#000000" font-family="sans-serif" font-size="13" lengthAdjust="spacing" textLength="123" x="293.75" y="89.7279">Updated Task Data</text></g><!--link TDB to User--><g id="link_TDB_User"><path d="M454.734,74.0566 C397.531,46.5976 292.775,6 202,23.661 C137.962,36.1204 73.1674,68.4307 42.557,84.9836 " fill="none" id="TDB-to-User" style="stroke:#181818;stroke-width:1.0;"/><polygon fill="#181818" points="37.2792,87.8376,47.0985,87.0751,41.6773,85.4593,43.2932,80.0381,37.2792,87.8376" style="stroke:#181818;stroke-width:1.0;"/><text fill="#000000" font-family="sans-serif" font-size="13" lengthAdjust="spacing" textLength="65" x="203" y="24.7279">Task Data</text></g><!--SRC=[HOp13O0W54FlVug6kmjmy60O0GRu0Y56WmROFu8e7ljUMxRbJ33P9qhU5exXy12QymvpEIvR30ASeGtLn2ldJwitTgqMelQ2QQvToBxsQ5Mge66r3EumFgZngf-r_FaD]--></g></svg>