<?xml version="1.0" encoding="us-ascii" standalone="no"?><svg xmlns="http://www.w3.org/2000/svg" xmlns:xlink="http://www.w3.org/1999/xlink" contentStyleType="text/css" height="141px" preserveAspectRatio="none" style="width:581px;height:141px;background:#FFFFFF;" version="1.1" viewBox="0 0 581 141" width="581px" zoomAndPan="magnify"><defs/><g><!--entity User--><g id="elem_User"><ellipse cx="21.5" cy="68.545" fill="#F1F1F1" rx="8" ry="8" style="stroke:#181818;stroke-width:0.5;"/><path d="M21.5,76.545 L21.5,103.545 M8.5,84.545 L34.5,84.545 M21.5,103.545 L8.5,118.545 M21.5,103.545 L34.5,118.545 " fill="none" style="stroke:#181818;stroke-width:0.5;"/><text fill="#000000" font-family="sans-serif" font-size="14" lengthAdjust="spacing" textLength="31" x="6" y="133.0401">User</text></g><!--entity TD--><g id="elem_TD"><rect fill="#F1F1F1" height="36.2969" rx="2.5" ry="2.5" style="stroke:#181818;stroke-width:0.5;" width="119" x="150" y="80.045"/><text fill="#000000" font-family="sans-serif" font-size="14" lengthAdjust="spacing" textLength="99" x="160" y="103.0401">Task Deletion</text></g><!--entity TDB--><g id="elem_TDB"><path d="M439,85.545 C439,75.545 501.5,75.545 501.5,75.545 C501.5,75.545 564,75.545 564,85.545 L564,110.8419 C564,120.8419 501.5,120.8419 501.5,120.8419 C501.5,120.8419 439,120.8419 439,110.8419 L439,85.545 " fill="#F1F1F1" style="stroke:#181818;stroke-width:0.5;"/><path d="M439,85.545 C439,95.545 501.5,95.545 501.5,95.545 C501.5,95.545 564,95.545 564,85.545 " fill="none" style="stroke:#181818;stroke-width:0.5;"/><text fill="#000000" font-family="sans-serif" font-size="14" lengthAdjust="spacing" textLength="105" x="449" y="112.5401">Task Database</text></g><!--link User to TD--><g id="link_User_TD"><path d="M37.2054,98.045 C61.7389,98.045 104.426,98.045 143.804,98.045 " fill="none" id="User-to-TD" style="stroke:#181818;stroke-width:1.0;"/><polygon fill="#181818" points="149.804,98.045,140.804,94.045,144.804,98.045,140.804,102.045,149.804,98.045" style="stroke:#181818;stroke-width:1.0;"/><text fill="#000000" font-family="sans-serif" font-size="13" lengthAdjust="spacing" textLength="76" x="55.5" y="91.1119">Delete Task</text></g><!--link TD to TDB--><g id="link_TD_TDB"><path d="M269.295,98.045 C318.683,98.045 382.576,98.045 432.758,98.045 " fill="none" id="TD-to-TDB" style="stroke:#181818;stroke-width:1.0;"/><polygon fill="#181818" points="438.758,98.045,429.758,94.045,433.758,98.045,429.758,102.045,438.758,98.045" style="stroke:#181818;stroke-width:1.0;"/><text fill="#000000" font-family="sans-serif" font-size="13" lengthAdjust="spacing" textLength="133" x="287.5" y="91.1119">Delete Task Request</text></g><!--link TDB to User--><g id="link_TDB_User"><path d="M458.06,75.5344 C398.85,47.6461 289.37,6 195,25.045 C133.496,37.4569 71.8825,69.3698 42.3057,86.0223 " fill="none" id="TDB-to-User" style="stroke:#181818;stroke-width:1.0;"/><polygon fill="#181818" points="37.0774,88.966,46.8823,88.036,41.4343,86.513,42.9574,81.065,37.0774,88.966" style="stroke:#181818;stroke-width:1.0;"/><text fill="#000000" font-family="sans-serif" font-size="13" lengthAdjust="spacing" textLength="83" x="196" y="26.1119">Confirmation</text></g><!--SRC=[LOqn3eGm30Hxls95pmSeA80N8Eu1FZ08mIKYDlyd2UWaoftPjNaq7_1H2HHaD7RBBYW6rWsTx6AhTmLOCNGqiV6NzQ-V-EY6A5r1MSU0wbuBKfKYoBXvS_HodA96oSH2tbTelPlNyEFq-m80]--></g></svg>