<?xml version="1.0" encoding="us-ascii" standalone="no"?><svg xmlns="http://www.w3.org/2000/svg" xmlns:xlink="http://www.w3.org/1999/xlink" contentStyleType="text/css" height="140px" preserveAspectRatio="none" style="width:546px;height:140px;background:#FFFFFF;" version="1.1" viewBox="0 0 546 140" width="546px" zoomAndPan="magnify"><defs/><g><!--entity User--><g id="elem_User"><ellipse cx="21.5" cy="67.599" fill="#F1F1F1" rx="8" ry="8" style="stroke:#181818;stroke-width:0.5;"/><path d="M21.5,75.599 L21.5,102.599 M8.5,83.599 L34.5,83.599 M21.5,102.599 L8.5,117.599 M21.5,102.599 L34.5,117.599 " fill="none" style="stroke:#181818;stroke-width:0.5;"/><text fill="#000000" font-family="sans-serif" font-size="14" lengthAdjust="spacing" textLength="31" x="6" y="132.0941">User</text></g><!--entity TC--><g id="elem_TC"><rect fill="#F1F1F1" height="36.2969" rx="2.5" ry="2.5" style="stroke:#181818;stroke-width:0.5;" width="119" x="151" y="79.099"/><text fill="#000000" font-family="sans-serif" font-size="14" lengthAdjust="spacing" textLength="99" x="161" y="102.0941">Task Creation</text></g><!--entity TDB--><g id="elem_TDB"><path d="M404,84.599 C404,74.599 466.5,74.599 466.5,74.599 C466.5,74.599 529,74.599 529,84.599 L529,109.8959 C529,119.8959 466.5,119.8959 466.5,119.8959 C466.5,119.8959 404,119.8959 404,109.8959 L404,84.599 " fill="#F1F1F1" style="stroke:#181818;stroke-width:0.5;"/><path d="M404,84.599 C404,94.599 466.5,94.599 466.5,94.599 C466.5,94.599 529,94.599 529,84.599 " fill="none" style="stroke:#181818;stroke-width:0.5;"/><text fill="#000000" font-family="sans-serif" font-size="14" lengthAdjust="spacing" textLength="105" x="414" y="111.5941">Task Database</text></g><!--link User to TC--><g id="link_User_TC"><path d="M37.289,97.099 C62.0416,97.099 105.251,97.099 144.913,97.099 " fill="none" id="User-to-TC" style="stroke:#181818;stroke-width:1.0;"/><polygon fill="#181818" points="150.913,97.099,141.913,93.099,145.913,97.099,141.913,101.099,150.913,97.099" style="stroke:#181818;stroke-width:1.0;"/><text fill="#000000" font-family="sans-serif" font-size="13" lengthAdjust="spacing" textLength="77" x="55.5" y="90.1659">Create Task</text></g><!--link TC to TDB--><g id="link_TC_TDB"><path d="M270.198,97.099 C310.237,97.099 356.886,97.099 397.579,97.099 " fill="none" id="TC-to-TDB" style="stroke:#181818;stroke-width:1.0;"/><polygon fill="#181818" points="403.579,97.099,394.579,93.099,398.579,97.099,394.579,101.099,403.579,97.099" style="stroke:#181818;stroke-width:1.0;"/><text fill="#000000" font-family="sans-serif" font-size="13" lengthAdjust="spacing" textLength="97" x="288.5" y="90.1659">New Task Data</text></g><!--link TDB to User--><g id="link_TDB_User"><path d="M426.055,74.3632 C371.956,46.7587 272.88,6 187,24.099 C128.616,36.4034 70.8986,67.6057 42.3544,84.4489 " fill="none" id="TDB-to-User" style="stroke:#181818;stroke-width:1.0;"/><polygon fill="#181818" points="37.187,87.4981,46.971,86.3693,41.4932,84.9571,42.9054,79.4794,37.187,87.4981" style="stroke:#181818;stroke-width:1.0;"/><text fill="#000000" font-family="sans-serif" font-size="13" lengthAdjust="spacing" textLength="65" x="188" y="25.1659">Task Data</text></g><!--SRC=[HOmx3e0W40NxFSKBlHUWi51gApp0YXjZD900YTSN_9OxysRPvH0n9eaKnMNsoovGbjE6FWhdDNW5Jh0zpPnvulHgyvotDXrH_OAcBLleknRKAHLGiUaA7-J0rrDbHLsb_la9]--></g></svg>