<?xml version="1.0" encoding="us-ascii" standalone="no"?><svg xmlns="http://www.w3.org/2000/svg" xmlns:xlink="http://www.w3.org/1999/xlink" contentStyleType="text/css" height="499px" preserveAspectRatio="none" style="width:421px;height:499px;background:#FFFFFF;" version="1.1" viewBox="0 0 421 499" width="421px" zoomAndPan="magnify"><defs/><g><ellipse cx="207.5" cy="16" fill="#222222" rx="10" ry="10" style="stroke:#222222;stroke-width:1.0;"/><path d="M19.5,103 L395.1026,103 A12.5,12.5 0 0 1 407.6026,115.5 L407.6026,129.2969 L7,129.2969 L7,115.5 A12.5,12.5 0 0 1 19.5,103 " fill="#F1F1F1" style="stroke:#F1F1F1;stroke-width:1.0;"/><rect fill="none" height="390.2969" rx="12.5" ry="12.5" style="stroke:#181818;stroke-width:0.5;" width="400.6026" x="7" y="103"/><line style="stroke:#181818;stroke-width:0.5;" x1="7" x2="407.6026" y1="129.2969" y2="129.2969"/><text fill="#000000" font-family="sans-serif" font-size="14" lengthAdjust="spacing" textLength="30" x="192.3013" y="120.9951">New</text><!--cluster Uncompleted--><g id="cluster_Uncompleted"><path d="M113.1026,141.2969 L386.1026,141.2969 A12.5,12.5 0 0 1 398.6026,153.7969 L398.6026,162.5938 L100.6026,162.5938 L100.6026,153.7969 A12.5,12.5 0 0 1 113.1026,141.2969 " fill="#F1F1F1" style="stroke:#F1F1F1;stroke-width:1.0;"/><rect fill="none" height="342" rx="12.5" ry="12.5" style="stroke:#181818;stroke-width:0.5;" width="298" x="100.6026" y="141.2969"/><line style="stroke:#181818;stroke-width:0.5;" x1="100.6026" x2="398.6026" y1="162.5938" y2="162.5938"/><text fill="#000000" font-family="sans-serif" font-size="14" lengthAdjust="spacing" textLength="97" x="201.1026" y="158.292">Uncompleted</text></g><!--cluster Completed--><g id="cluster_Completed"><path d="M274.1026,263.2969 L346.1026,263.2969 A12.5,12.5 0 0 1 358.6026,275.7969 L358.6026,284.5938 L261.6026,284.5938 L261.6026,275.7969 A12.5,12.5 0 0 1 274.1026,263.2969 " fill="#F1F1F1" style="stroke:#F1F1F1;stroke-width:1.0;"/><rect fill="none" height="87" rx="12.5" ry="12.5" style="stroke:#181818;stroke-width:0.5;" width="97" x="261.6026" y="263.2969"/><line style="stroke:#181818;stroke-width:0.5;" x1="261.6026" x2="358.6026" y1="284.5938" y2="284.5938"/><text fill="#000000" font-family="sans-serif" font-size="14" lengthAdjust="spacing" textLength="81" x="269.6026" y="280.292">Completed</text></g><ellipse cx="171.6026" cy="194.2969" fill="#222222" rx="10" ry="10" style="stroke:#222222;stroke-width:1.0;"/><g id="New.Uncompleted.Deleted"><rect fill="#F1F1F1" height="50" rx="12.5" ry="12.5" style="stroke:#181818;stroke-width:0.5;" width="78" x="245.6026" y="409.2969"/><line style="stroke:#181818;stroke-width:0.5;" x1="245.6026" x2="323.6026" y1="435.5938" y2="435.5938"/><text fill="#000000" font-family="sans-serif" font-size="14" lengthAdjust="spacing" textLength="58" x="255.6026" y="427.292">Deleted</text></g><ellipse cx="303.6026" cy="316.2969" fill="#222222" rx="10" ry="10" style="stroke:#222222;stroke-width:1.0;"/><ellipse cx="29.6026" cy="316.2969" fill="#222222" rx="10" ry="10" style="stroke:#222222;stroke-width:1.0;"/><!--link *start*New to Uncompleted--><g id="link_*start*New_Uncompleted"><path d="M26.9592,326.3149 C23.1827,341.1289 18,370.9919 30.6026,391.2969 C41.2305,408.4203 61.2609,418.8623 78.8637,425.0517 C83.2644,426.5991 87.5133,427.8807 91.4257,428.9345 C93.3819,429.4613 95.254,429.9313 97.0188,430.349 C97.9012,430.5578 98.7567,430.7536 99.5826,430.937 C99.7891,430.9828 99.9937,431.0278 100.1964,431.0721 C100.2978,431.0943 94.5348,429.8454 94.6352,429.8671 " fill="none" id="*start*New-to-Uncompleted" style="stroke:#181818;stroke-width:1.0;"/><polygon fill="#181818" points="100.4991,431.138,92.5505,425.3224,95.6125,430.0789,90.856,433.1409,100.4991,431.138" style="stroke:#181818;stroke-width:1.0;"/><text fill="#000000" font-family="sans-serif" font-size="13" lengthAdjust="spacing" textLength="72" x="31.6026" y="387.3638">Set Default</text></g><!--link *start*Uncompleted to Completed--><g id="link_*start*Uncompleted_Completed"><path d="M181.1596,197.3559 C200.9116,202.1749 246.0206,216.2099 265.6026,247.2969 C267.5566,250.3988 269.096,253.7465 270.2926,257.2351 C270.8909,258.9794 271.4035,260.759 271.8393,262.5606 C271.8938,262.7858 270.5985,257.1649 270.6506,257.3907 " fill="none" id="*start*Uncompleted-to-Completed" style="stroke:#181818;stroke-width:1.0;"/><polygon fill="#181818" points="271.9992,263.2372,273.8739,253.5684,270.8754,258.3651,266.0786,255.3666,271.9992,263.2372" style="stroke:#181818;stroke-width:1.0;"/><text fill="#000000" font-family="sans-serif" font-size="13" lengthAdjust="spacing" textLength="123" x="260.6026" y="235.3638">Mark as Completed</text></g><!--link *start*Uncompleted to Deleted--><g id="link_*start*Uncompleted_Deleted"><path d="M168.6266,203.8849 C159.5836,231.7269 135.6286,320.3479 179.6026,366.2969 C193.1796,380.4829 252.4636,361.7909 267.6026,374.2969 C277.7936,382.7159 281.2645,390.8794 282.9965,403.1877 " fill="none" id="*start*Uncompleted-to-Deleted" style="stroke:#181818;stroke-width:1.0;"/><polygon fill="#181818" points="283.8326,409.1292,286.5394,399.6596,283.1359,404.178,278.6175,400.7744,283.8326,409.1292" style="stroke:#181818;stroke-width:1.0;"/><text fill="#000000" font-family="sans-serif" font-size="13" lengthAdjust="spacing" textLength="76" x="180.6026" y="320.8638">Delete Task</text></g><!--link *start*Completed to Uncompleted--><g id="link_*start*Completed_Uncompleted"><path d="M303.9206,326.6069 C303.7456,337.9699 301.5236,356.8379 289.6026,366.2969 C261.1936,388.8389 154.4936,351.1169 126.6026,374.2969 C106.5239,390.9849 111.3074,424.7781 111.6823,427.2446 " fill="none" id="*start*Completed-to-Uncompleted" style="stroke:#181818;stroke-width:1.0;"/><polygon fill="#181818" points="112.5839,433.1765,115.186,423.6776,111.8325,428.2333,107.2769,424.8798,112.5839,433.1765" style="stroke:#181818;stroke-width:1.0;"/><text fill="#000000" font-family="sans-serif" font-size="13" lengthAdjust="spacing" textLength="138" x="127.6026" y="387.3638">Mark as Uncompleted</text></g><!--link *start*Completed to Deleted--><g id="link_*start*Completed_Deleted"><path d="M302.1116,326.3989 C299.2246,344.0249 293.7554,377.4158 289.5424,403.1379 " fill="none" id="*start*Completed-to-Deleted" style="stroke:#181818;stroke-width:1.0;"/><polygon fill="#181818" points="288.5726,409.059,293.9747,400.8239,289.3808,404.1247,286.0799,399.5308,288.5726,409.059" style="stroke:#181818;stroke-width:1.0;"/><text fill="#000000" font-family="sans-serif" font-size="13" lengthAdjust="spacing" textLength="76" x="294.6026" y="387.3638">Delete Task</text></g><!--link *start* to New--><g id="link_*start*_New"><path d="M207.5,26.316 C207.5,40.407 207.5,63.095 207.5,96.727 " fill="none" id="*start*-to-New" style="stroke:#181818;stroke-width:1.0;"/><polygon fill="#181818" points="207.5,102.727,211.5,93.727,207.5,97.727,203.5,93.727,207.5,102.727" style="stroke:#181818;stroke-width:1.0;"/><text fill="#000000" font-family="sans-serif" font-size="13" lengthAdjust="spacing" textLength="77" x="208.5" y="69.0669">Create Task</text></g><!--SRC=[YzQALT3LjLFmIorNi59mBafDB4bL24aipkRYAYu1iK4IrLmA2j5GXQ5voVcv1Jcf9QafG0t1gIKABgbfYQKv9LorC2t8If2rEYDfz4qiobP8B4Q88QbpIOMfWh0Wxe4RxupLS5HtmOn74YNU0fXqDLSj0000]--></g></svg>